<svg version="1.1" id="Laag_1" class="fill-white" xmlns="http://www.w3.org/2000/svg" x="0px" y="0px" viewBox="0 0 3062.03 1161.18" width="100%" height="100%"><g><g><path d="M1531.01,1094.95c-394.69,0-765.89-52.71-1045.22-148.42C203.34,849.75,47.78,719.79,47.78,580.59    s155.55-269.16,438.01-365.94c279.33-95.71,650.53-148.42,1045.22-148.42s765.89,52.71,1045.22,148.42    c282.46,96.78,438.01,226.74,438.01,365.94s-155.55,269.16-438.01,365.94C2296.9,1042.24,1925.7,1094.95,1531.01,1094.95z    M1531.01,84.94c-392.68,0-761.73,52.35-1039.16,147.41c-134.32,46.02-239.63,99.5-313.01,158.94    c-74.56,60.4-112.36,124.09-112.36,189.31s37.8,128.91,112.36,189.31c73.38,59.45,178.69,112.92,313.01,158.94    c277.43,95.06,646.47,147.41,1039.16,147.41s761.73-52.35,1039.16-147.41c134.32-46.02,239.63-99.5,313.01-158.94    c74.56-60.4,112.36-124.09,112.36-189.31s-37.81-128.91-112.36-189.31c-73.38-59.45-178.69-112.92-313.01-158.94    C2292.74,137.29,1923.69,84.94,1531.01,84.94z"></path></g><g><g><path d="M1566.07,445.48h-126.35c-34.12-64.56-94.99-96.84-171.54-96.84c-127.27,0-219.5,90.38-219.5,231.48     c0,141.1,92.23,232.41,219.5,232.41c116.2,0,189.06-70.09,204.74-177.99h-240.71v-83.93h353.22v82.08     c-19.37,148.48-144.79,274.83-317.25,274.83c-180.76,0-327.4-134.65-327.4-327.4c0-191.83,146.64-327.4,327.4-327.4     C1401.91,252.73,1517.19,320.06,1566.07,445.48z"></path></g><g><path d="M1899.9,908.45c-128.19,0-226.87-70.09-226.87-183.53h112.51c4.61,52.57,41.5,94.99,114.36,94.99     c73.78,0,115.28-39.66,115.28-94.07c0-154.94-340.31-54.41-340.31-290.51c0-112.51,89.46-182.61,220.42-182.61     c122.66,0,209.35,64.56,218.57,174.31h-116.2c-3.69-43.35-41.5-83-107.9-84.85c-60.87-1.84-107.9,27.67-107.9,89.46     c0,144.79,339.39,54.41,339.39,288.66C2121.24,816.23,2042.85,908.45,1899.9,908.45z"></path></g></g></g></svg>