<?xml version="1.0" encoding="UTF-8"?><svg id="uuid-b1b99cd3-b29f-4cc0-addd-651e65c10554" xmlns="http://www.w3.org/2000/svg" viewBox="0 0 98.18 75.58"><defs><style>.uuid-0de5be59-5747-4474-8577-31c4c416f789{fill:#f1cd3d;}.uuid-0de5be59-5747-4474-8577-31c4c416f789,.uuid-17d0b2f4-88d6-4946-bd36-64aaf26320c6{fill-rule:evenodd;}.uuid-17d0b2f4-88d6-4946-bd36-64aaf26320c6{fill:#ea5557;}</style></defs><g id="uuid-cf2778f4-6a55-4cb6-a883-62e12b8815eb"><polygon class="uuid-17d0b2f4-88d6-4946-bd36-64aaf26320c6" points="16.36 28.34 24.55 23.62 32.73 18.89 40.91 14.17 49.09 9.45 57.27 14.17 65.45 9.45 57.27 4.72 57.27 4.72 49.09 0 40.91 4.72 32.73 9.45 24.55 14.17 16.36 18.89 8.18 23.62 0 28.34 8.18 33.07 8.18 33.07 16.37 28.34 16.36 28.34"/><polygon class="uuid-17d0b2f4-88d6-4946-bd36-64aaf26320c6" points="57.27 23.62 49.09 28.34 40.91 23.62 32.73 28.34 40.91 33.07 49.09 37.79 57.27 33.07 65.45 28.34 73.64 23.62 81.82 18.89 73.64 14.17 65.45 18.89 57.27 23.62"/><polygon class="uuid-17d0b2f4-88d6-4946-bd36-64aaf26320c6" points="90 23.62 81.82 28.34 73.64 33.07 65.45 37.79 57.27 42.51 49.09 47.24 40.91 42.51 32.73 37.79 24.55 33.07 16.37 37.79 24.55 42.51 32.73 47.24 40.91 51.96 49.09 56.69 57.27 51.96 65.45 47.24 65.45 56.69 57.27 61.41 49.09 66.13 40.91 61.41 32.73 56.69 24.55 51.96 24.55 61.41 32.73 66.13 40.91 70.86 40.91 70.86 49.09 75.58 57.27 70.86 65.45 66.13 73.64 61.41 73.64 51.96 73.64 42.51 81.82 37.79 90 33.07 98.18 28.34 90 23.62"/><polygon class="uuid-0de5be59-5747-4474-8577-31c4c416f789" points="8.18 51.96 11.73 49.91 16.36 56.69 16.36 37.79 8.18 42.52 8.18 51.96"/><polygon class="uuid-0de5be59-5747-4474-8577-31c4c416f789" points="24.55 33.07 16.37 28.34 8.18 33.07 8.18 42.52 16.36 37.79 16.36 37.79 16.37 37.79 24.55 33.07 24.55 33.07"/></g></svg>