<svg xmlns="http://www.w3.org/2000/svg" width="100%" height="100%" viewBox="0 0 354 354" fill="none"><rect x="176.684" width="249.868" height="249.868" transform="rotate(45 176.684 0)" fill="black"></rect><path d="M177 15.7739L15.8577 177L177 338.226L338.142 177L177 15.7739Z" stroke="white" stroke-width="6"></path><path d="M189.622 149.566L123.118 119.955L86.1233 169.858L139.135 250.592V284.471L177.174 322.008L222.874 276.197L222.612 262.698L225.05 255.295L247.334 215.494L262.045 172.21L241.85 152.788L200.503 196.334L221.046 209.921L245.593 186.754L242.894 197.902L222.612 217.062L182.658 193.199L194.061 234.655L172.735 188.932L142.181 167.681L145.228 161.323L166.728 173.342L189.622 149.566Z" fill="white"></path><path d="M221.829 123.613L170.036 178.306L195.106 193.286L243.242 144.863L221.829 123.613Z" fill="white"></path><path d="M199.98 96.0916L164.03 133.018L193.626 145.647L221.046 117.168L199.98 96.0916Z" fill="white"></path><path d="M171.516 76.3218L129.473 119.084L159.33 131.015L192.842 97.1367L171.516 76.3218Z" fill="white"></path></svg>